<svg width="16" height="17" viewBox="0 0 16 17" fill="none" xmlns="http://www.w3.org/2000/svg">
<path fill-rule="evenodd" clip-rule="evenodd" d="M8.00065 1.83331C4.32065 1.83331 1.33398 4.81998 1.33398 8.49998C1.33398 12.18 4.32065 15.1666 8.00065 15.1666C11.6807 15.1666 14.6673 12.18 14.6673 8.49998C14.6673 4.81998 11.6807 1.83331 8.00065 1.83331ZM8.00065 13.8333C5.06065 13.8333 2.66732 11.44 2.66732 8.49998C2.66732 5.55998 5.06065 3.16665 8.00065 3.16665C10.9407 3.16665 13.334 5.55998 13.334 8.49998C13.334 11.44 10.9407 13.8333 8.00065 13.8333ZM11.334 7.83331H4.66732V9.16665H11.334V7.83331Z" fill="#A5B2C0"/>
</svg>
