<svg width="16" height="17" viewBox="0 0 16 17" fill="none" xmlns="http://www.w3.org/2000/svg">
<path fill-rule="evenodd" clip-rule="evenodd" d="M12.0026 7.66667V11L12.8559 11.86C13.2759 12.28 12.9759 13 12.3826 13H3.60261C3.00927 13 2.71594 12.28 3.13594 11.86L4.00261 11V7.66667C4.00261 5.61333 5.08927 3.90667 7.00261 3.45333V3C7.00261 2.44667 7.44261 2 7.99594 2C8.54927 2 9.00261 2.44667 9.00261 3V3.45333C10.9093 3.90667 12.0026 5.62 12.0026 7.66667ZM9.32925 13.6667C9.32925 14.4 8.72925 15 7.99592 15C7.25592 15 6.66259 14.4 6.66259 13.6667H9.32925ZM4.51592 3.48667C4.79592 3.23333 4.80259 2.8 4.53592 2.53333C4.28259 2.28 3.86926 2.27333 3.60926 2.52C2.46926 3.56 1.68259 4.97333 1.42926 6.56C1.36926 6.96667 1.68259 7.33333 2.09592 7.33333C2.41592 7.33333 2.69592 7.1 2.74926 6.78C2.94926 5.48667 3.58926 4.33333 4.51592 3.48667ZM11.4693 2.53333C11.7226 2.28 12.1359 2.27333 12.4026 2.52C13.5359 3.56667 14.3159 4.97333 14.5693 6.55333C14.6359 6.96 14.3159 7.32667 13.9093 7.32667C13.5826 7.32667 13.3026 7.09333 13.2559 6.77333C13.0559 5.48 12.4093 4.32667 11.4893 3.48C11.2159 3.22667 11.2026 2.8 11.4693 2.53333Z" fill="black" fill-opacity="0.54"/>
</svg>
