<svg width="14" height="11" viewBox="0 0 14 11" fill="none" xmlns="http://www.w3.org/2000/svg">
<path fill-rule="evenodd" clip-rule="evenodd" d="M5.00065 5.49998C6.28732 5.49998 7.33398 4.45331 7.33398 3.16665C7.33398 1.87998 6.28732 0.833313 5.00065 0.833313C3.71398 0.833313 2.66732 1.87998 2.66732 3.16665C2.66732 4.45331 3.71398 5.49998 5.00065 5.49998ZM0.333984 8.99998C0.333984 7.44665 3.44065 6.66665 5.00065 6.66665C6.56065 6.66665 9.66732 7.44665 9.66732 8.99998V10.1666H0.333984V8.99998ZM5.00062 7.99998C3.80729 7.99998 2.45395 8.44665 1.89395 8.83331H8.10729C7.54729 8.44665 6.19395 7.99998 5.00062 7.99998ZM6.00065 3.16665C6.00065 2.61331 5.55398 2.16665 5.00065 2.16665C4.44732 2.16665 4.00065 2.61331 4.00065 3.16665C4.00065 3.71998 4.44732 4.16665 5.00065 4.16665C5.55398 4.16665 6.00065 3.71998 6.00065 3.16665ZM9.69397 6.70665C10.4673 7.26665 11.0006 8.01331 11.0006 8.99998V10.1666H13.6673V8.99998C13.6673 7.65331 11.334 6.88665 9.69397 6.70665ZM11.334 3.16665C11.334 4.45331 10.2873 5.49998 9.00065 5.49998C8.64065 5.49998 8.30732 5.41331 8.00065 5.26665C8.42065 4.67331 8.66732 3.94665 8.66732 3.16665C8.66732 2.38665 8.42065 1.65998 8.00065 1.06665C8.30732 0.91998 8.64065 0.833313 9.00065 0.833313C10.2873 0.833313 11.334 1.87998 11.334 3.16665Z" fill="#A5B2C0"/>
</svg>
