<svg width="32" height="32" viewBox="0 0 32 32" fill="none" xmlns="http://www.w3.org/2000/svg">
<path d="M1 3H27V9H1V3Z" fill="#A6B1C9"/>
<path d="M26.9 21.35L27 21.3V9H1V25H17.15L23 14L26.9 21.35Z" fill="white"/>
<path opacity="0.15" d="M21.2499 17.3L19.9999 15L14.6499 25H17.1499L21.2499 17.3Z" fill="#000064"/>
<path d="M15 29L23 14L31 29H15Z" fill="#FFCC66"/>
<path d="M4 6.5C4.27614 6.5 4.5 6.27614 4.5 6C4.5 5.72386 4.27614 5.5 4 5.5C3.72386 5.5 3.5 5.72386 3.5 6C3.5 6.27614 3.72386 6.5 4 6.5Z" fill="#F27E7C"/>
<path d="M7.5 6.5C7.77614 6.5 8 6.27614 8 6C8 5.72386 7.77614 5.5 7.5 5.5C7.22386 5.5 7 5.72386 7 6C7 6.27614 7.22386 6.5 7.5 6.5Z" fill="#F27E7C"/>
<path d="M11 6.5C11.2761 6.5 11.5 6.27614 11.5 6C11.5 5.72386 11.2761 5.5 11 5.5C10.7239 5.5 10.5 5.72386 10.5 6C10.5 6.27614 10.7239 6.5 11 6.5Z" fill="#F27E7C"/>
<path opacity="0.15" d="M1 9H3V25H1V9ZM1 3H3V9H1V3Z" fill="#000064"/>
<path d="M23 20V23M15 29L23 14L31 29H15Z" stroke="#2E4369" stroke-linecap="round" stroke-linejoin="round"/>
<path d="M4 6.5C4.27614 6.5 4.5 6.27614 4.5 6C4.5 5.72386 4.27614 5.5 4 5.5C3.72386 5.5 3.5 5.72386 3.5 6C3.5 6.27614 3.72386 6.5 4 6.5Z" stroke="#2E4369" stroke-linecap="round" stroke-linejoin="round"/>
<path d="M7.5 6.5C7.77614 6.5 8 6.27614 8 6C8 5.72386 7.77614 5.5 7.5 5.5C7.22386 5.5 7 5.72386 7 6C7 6.27614 7.22386 6.5 7.5 6.5Z" stroke="#2E4369" stroke-linecap="round" stroke-linejoin="round"/>
<path d="M11 6.5C11.2761 6.5 11.5 6.27614 11.5 6C11.5 5.72386 11.2761 5.5 11 5.5C10.7239 5.5 10.5 5.72386 10.5 6C10.5 6.27614 10.7239 6.5 11 6.5Z" stroke="#2E4369" stroke-linecap="round" stroke-linejoin="round"/>
<path d="M1 9V25H17M1 3H27V9H1V3ZM27 21.5V9V21.5Z" stroke="#2E4369" stroke-linecap="round" stroke-linejoin="round"/>
<path d="M23 26.5C23.2761 26.5 23.5 26.2761 23.5 26C23.5 25.7239 23.2761 25.5 23 25.5C22.7239 25.5 22.5 25.7239 22.5 26C22.5 26.2761 22.7239 26.5 23 26.5Z" stroke="#2E4369" stroke-linecap="round" stroke-linejoin="round"/>
</svg>
