<svg width="40" height="40" viewBox="0 0 40 40" fill="none" xmlns="http://www.w3.org/2000/svg">
<path d="M12.5777 37.9427C12.2809 37.9733 11.9824 37.9923 11.6902 38C11.5245 38.0021 11.3664 38.0688 11.2507 38.1852C11.1351 38.3017 11.0713 38.4585 11.0735 38.621C11.0757 38.7836 11.1437 38.9386 11.2624 39.052C11.3812 39.1655 11.541 39.228 11.7068 39.2258H11.724C12.048 39.2172 12.3787 39.1952 12.7071 39.1624C12.872 39.1455 13.0233 39.0652 13.1278 38.9389C13.2322 38.8127 13.2813 38.6509 13.2641 38.4892C13.247 38.3275 13.165 38.1792 13.0363 38.0767C12.9076 37.9743 12.7426 37.9262 12.5777 37.943V37.9427Z" fill="black"/>
<path d="M9.63087 37.8655C9.33994 37.8183 9.04931 37.7579 8.76713 37.6865C8.60659 37.6459 8.43617 37.6694 8.29335 37.752C8.15053 37.8346 8.04701 37.9695 8.00557 38.1269C7.96413 38.2843 7.98816 38.4514 8.07238 38.5915C8.15659 38.7316 8.29409 38.8331 8.45463 38.8737C8.77213 38.9537 9.09869 39.0214 9.42525 39.0747C9.45934 39.0802 9.49383 39.083 9.52837 39.083C9.68551 39.0833 9.83698 39.0255 9.95262 38.9212C10.0683 38.8169 10.1396 38.6737 10.1524 38.5201C10.1652 38.3665 10.1186 38.2138 10.0217 38.0924C9.92491 37.9711 9.78503 37.8899 9.62993 37.8652L9.63087 37.8655Z" fill="black"/>
<path d="M15.4799 37.3019C15.1968 37.3981 14.9087 37.4857 14.6237 37.5621C14.4638 37.605 14.3279 37.7086 14.2458 37.8498C14.1638 37.9911 14.1423 38.1585 14.1862 38.3153C14.23 38.4721 14.3356 38.6054 14.4796 38.6858C14.6237 38.7663 14.7944 38.7873 14.9543 38.7444C15.2668 38.661 15.5793 38.5651 15.8886 38.4606C16.0453 38.4074 16.1741 38.2954 16.2465 38.1492C16.319 38.0029 16.3293 37.8345 16.275 37.6808C16.2208 37.5272 16.1066 37.4009 15.9575 37.3298C15.8084 37.2588 15.6366 37.2487 15.4799 37.3019Z" fill="black"/>
<path d="M6.85027 36.9798C6.58995 36.8505 6.33339 36.7077 6.08746 36.5551C5.94735 36.4682 5.77778 36.4395 5.61607 36.4752C5.45435 36.5109 5.31372 36.6082 5.22512 36.7456C5.13652 36.883 5.10721 37.0492 5.14363 37.2078C5.18006 37.3664 5.27923 37.5043 5.41934 37.5912C5.69871 37.7644 5.98996 37.9268 6.28558 38.0733C6.43348 38.1467 6.60507 38.1595 6.7626 38.1089C6.92013 38.0582 7.05069 37.9483 7.12558 37.8033C7.20046 37.6582 7.21352 37.49 7.16189 37.3355C7.11026 37.181 6.99816 37.053 6.85027 36.9795V36.9798Z" fill="black"/>
<path d="M18.1989 36.0663C17.9393 36.2156 17.6733 36.359 17.4083 36.4923C17.3353 36.529 17.2704 36.5795 17.2172 36.6409C17.1641 36.7022 17.1238 36.7732 17.0987 36.8498C17.0735 36.9265 17.064 37.0072 17.0707 37.0874C17.0774 37.1676 17.1001 37.2458 17.1375 37.3174C17.175 37.389 17.2265 37.4527 17.2891 37.5048C17.3516 37.5569 17.424 37.5964 17.5022 37.621C17.5803 37.6457 17.6626 37.655 17.7444 37.6485C17.8262 37.642 17.9059 37.6197 17.9789 37.5829C18.2649 37.4392 18.5517 37.2848 18.8314 37.1233C18.9744 37.041 19.0783 36.9065 19.1201 36.7492C19.162 36.5919 19.1384 36.4247 19.0546 36.2845C18.9707 36.1443 18.8335 36.0424 18.6731 36.0014C18.5127 35.9604 18.3423 35.9835 18.1993 36.0657L18.1989 36.0663Z" fill="black"/>
<path d="M3.8956 34.6655C3.84369 34.6015 3.77924 34.5483 3.70604 34.5091C3.63285 34.4699 3.55239 34.4454 3.46942 34.4372C3.38644 34.429 3.30262 34.4371 3.2229 34.4611C3.14317 34.4851 3.06916 34.5245 3.00521 34.577C2.94126 34.6296 2.88868 34.6941 2.85056 34.7668C2.81243 34.8396 2.78954 34.919 2.78323 35.0006C2.77691 35.0822 2.78731 35.1641 2.8138 35.2417C2.84029 35.3192 2.88234 35.3908 2.93748 35.4522C3.14998 35.7013 3.37498 35.9425 3.60841 36.1705C3.72645 36.282 3.88441 36.3435 4.04829 36.3419C4.21217 36.3403 4.36884 36.2756 4.48456 36.1618C4.60028 36.048 4.66579 35.8942 4.66697 35.7335C4.66816 35.5728 4.60493 35.418 4.49091 35.3026C4.28403 35.1003 4.08403 34.8864 3.8956 34.6655Z" fill="black"/>
<path d="M20.653 34.3532C20.4224 34.5454 20.1842 34.7329 19.948 34.9113C19.8164 35.0101 19.7303 35.1562 19.7085 35.3174C19.6868 35.4785 19.7312 35.6415 19.8321 35.7706C19.9329 35.8996 20.0818 35.984 20.2462 36.0054C20.4105 36.0267 20.5767 35.9831 20.7083 35.8843C20.962 35.6936 21.2158 35.4929 21.462 35.2876C21.5872 35.182 21.6646 35.0322 21.6775 34.8708C21.6904 34.7095 21.6377 34.5497 21.5308 34.4263C21.424 34.3029 21.2717 34.226 21.1073 34.2123C20.9428 34.1986 20.7795 34.2493 20.653 34.3532Z" fill="black"/>
<path d="M2.73748 32.9935C2.59748 32.7419 2.46467 32.4792 2.34374 32.2136C2.31025 32.1401 2.26233 32.0738 2.20272 32.0184C2.1431 31.9631 2.07296 31.9199 1.99629 31.8911C1.91963 31.8624 1.83794 31.8487 1.75589 31.8509C1.67385 31.8532 1.59305 31.8712 1.51812 31.904C1.44318 31.9369 1.37558 31.9839 1.31916 32.0423C1.26274 32.1008 1.21862 32.1696 1.18931 32.2448C1.16001 32.3199 1.14608 32.4001 1.14835 32.4805C1.15061 32.561 1.16901 32.6402 1.20249 32.7137C1.33718 33.0091 1.48374 33.3008 1.63999 33.5809C1.67933 33.6516 1.73246 33.714 1.79637 33.7645C1.86028 33.815 1.93371 33.8526 2.01247 33.8753C2.09122 33.898 2.17376 33.9052 2.25537 33.8966C2.33698 33.888 2.41607 33.8638 2.48811 33.8252C2.56015 33.7866 2.62374 33.7345 2.67525 33.6718C2.72675 33.6092 2.76516 33.5371 2.78829 33.4599C2.81142 33.3827 2.81881 33.3017 2.81004 33.2217C2.80127 33.1417 2.77651 33.0641 2.73717 32.9935H2.73748Z" fill="black"/>
<path d="M1.66686 30.2881C1.59468 30.0077 1.53093 29.7193 1.4778 29.4301C1.44826 29.2701 1.35513 29.1282 1.2189 29.0356C1.08267 28.943 0.914508 28.9072 0.751401 28.9362C0.588294 28.9652 0.443604 29.0565 0.349163 29.1901C0.254721 29.3237 0.218264 29.4886 0.24781 29.6486C0.306247 29.9645 0.375934 30.2805 0.454996 30.5875C0.474657 30.666 0.509957 30.7399 0.558865 30.805C0.607773 30.8701 0.669322 30.925 0.739969 30.9666C0.810616 31.0083 0.888965 31.0358 0.970506 31.0476C1.05205 31.0595 1.13517 31.0554 1.21508 31.0356C1.295 31.0157 1.37013 30.9806 1.43615 30.9322C1.50217 30.8838 1.55778 30.8231 1.59977 30.7536C1.64176 30.684 1.66931 30.607 1.68082 30.527C1.69234 30.4469 1.68759 30.3654 1.66686 30.2872V30.2881Z" fill="black"/>
<path d="M0.656141 28.0213C0.738177 28.0186 0.818869 28.0001 0.89361 27.9669C0.96835 27.9336 1.03567 27.8862 1.09174 27.8274C1.1478 27.7686 1.19151 27.6996 1.22036 27.6242C1.24921 27.5488 1.26264 27.4687 1.25989 27.3882C1.24989 27.0938 1.24864 26.7992 1.25614 26.5044C1.26028 26.3418 1.19841 26.1843 1.08413 26.0665C1.02754 26.0082 0.959795 25.9613 0.884752 25.9287C0.80971 25.896 0.728842 25.8782 0.646766 25.8762C0.481007 25.8721 0.320391 25.9328 0.200251 26.0448C0.0801112 26.1569 0.0102894 26.3112 0.00614538 26.4738C-0.00197956 26.7921 -0.000625405 27.1106 0.0102079 27.4293C0.0156413 27.5882 0.08388 27.7389 0.200506 27.8494C0.317131 27.96 0.473009 28.0217 0.635204 28.0216L0.656141 28.0213Z" fill="black"/>
<path d="M0.729371 24.9599C0.760403 24.9645 0.791737 24.9668 0.82312 24.9669C0.972506 24.9667 1.11689 24.9141 1.23011 24.8185C1.34333 24.723 1.4179 24.5908 1.4403 24.4459C1.48499 24.1567 1.53843 23.8622 1.59905 23.5713C1.61547 23.4925 1.61588 23.4112 1.60026 23.3321C1.58465 23.2531 1.55331 23.1779 1.50804 23.1107C1.46278 23.0435 1.40446 22.9858 1.33643 22.9407C1.2684 22.8957 1.19199 22.8642 1.11156 22.8481C1.03112 22.832 0.948242 22.8316 0.867649 22.8469C0.787055 22.8622 0.710327 22.893 0.641844 22.9374C0.573361 22.9817 0.514466 23.0389 0.468519 23.1056C0.422573 23.1724 0.390476 23.2473 0.374061 23.3262C0.310311 23.6372 0.253436 23.9519 0.205312 24.2618C0.192971 24.3413 0.196738 24.4225 0.216397 24.5007C0.236056 24.5788 0.271222 24.6524 0.319887 24.7173C0.368552 24.7821 0.429762 24.8369 0.500022 24.8785C0.570282 24.9201 0.648215 24.9478 0.729371 24.9599V24.9599Z" fill="black"/>
<path d="M1.35343 21.9591C1.51102 22.0094 1.68255 21.9963 1.83029 21.9227C1.97803 21.849 2.08988 21.7208 2.14123 21.5662C2.23498 21.2864 2.33592 21.0039 2.44311 20.7269C2.47222 20.6516 2.48594 20.5715 2.48347 20.491C2.481 20.4106 2.4624 20.3314 2.42872 20.258C2.39505 20.1846 2.34696 20.1184 2.2872 20.0632C2.22745 20.008 2.15719 19.9649 2.08045 19.9364C2.00371 19.9078 1.92199 19.8944 1.83995 19.8968C1.7579 19.8992 1.67715 19.9175 1.6023 19.9505C1.52745 19.9835 1.45996 20.0307 1.40369 20.0893C1.34743 20.1479 1.30348 20.2168 1.27436 20.292C1.1603 20.5874 1.05218 20.8884 0.953115 21.1865C0.901769 21.3411 0.915095 21.5092 0.990162 21.6541C1.06523 21.799 1.19589 21.9087 1.35343 21.9591V21.9591Z" fill="black"/>
<path d="M2.45936 19.095C2.53255 19.1315 2.61234 19.1534 2.69419 19.1596C2.77603 19.1658 2.85831 19.1561 2.93635 19.1312C3.01438 19.1062 3.08663 19.0664 3.14897 19.014C3.21131 18.9616 3.26251 18.8977 3.29967 18.8259C3.43623 18.5627 3.58092 18.2985 3.72966 18.0405C3.77192 17.9704 3.79949 17.8927 3.81077 17.812C3.82205 17.7313 3.81681 17.6492 3.79535 17.5705C3.7739 17.4918 3.73667 17.4181 3.68583 17.3536C3.63499 17.2892 3.57157 17.2354 3.49927 17.1953C3.42697 17.1552 3.34724 17.1296 3.26474 17.1201C3.18225 17.1105 3.09864 17.1172 3.01881 17.1397C2.93898 17.1622 2.86453 17.2001 2.7998 17.2512C2.73508 17.3023 2.68139 17.3655 2.64186 17.4371C2.48374 17.7111 2.32936 17.9918 2.18499 18.2716C2.11012 18.4165 2.09696 18.5846 2.14841 18.739C2.19986 18.8934 2.3117 19.0214 2.45936 19.095V19.095Z" fill="black"/>
<path d="M5.31247 14.7161C5.248 14.6663 5.17415 14.6294 5.09515 14.6076C5.01614 14.5857 4.93352 14.5793 4.85201 14.5888C4.77049 14.5983 4.69168 14.6234 4.62007 14.6628C4.54846 14.7021 4.48546 14.7549 4.43466 14.8182C4.23529 15.0661 4.04029 15.3207 3.85435 15.5751C3.80542 15.6404 3.7702 15.7147 3.75073 15.7935C3.73126 15.8723 3.72792 15.9541 3.74092 16.0341C3.75391 16.1142 3.78298 16.191 3.82643 16.2599C3.86988 16.3289 3.92686 16.3887 3.99406 16.436C4.06126 16.4832 4.13735 16.5169 4.21792 16.5351C4.29849 16.5533 4.38194 16.5556 4.46344 16.542C4.54494 16.5283 4.62286 16.4989 4.69269 16.4555C4.76253 16.4121 4.82289 16.3556 4.87028 16.2891C5.04528 16.0498 5.22872 15.8101 5.41653 15.5769C5.46734 15.5137 5.50495 15.4413 5.52722 15.3638C5.54949 15.2863 5.55598 15.2053 5.54632 15.1254C5.53666 15.0454 5.51103 14.9682 5.47091 14.8979C5.43078 14.8277 5.37694 14.7659 5.31247 14.7161Z" fill="black"/>
<path d="M28.9873 15.7461C28.9148 15.7872 28.8515 15.8422 28.8013 15.9079C28.751 15.9736 28.7148 16.0485 28.6948 16.1283L29.901 16.1001C29.8844 16.056 29.8641 16.0134 29.8404 15.9726C29.7579 15.8316 29.6217 15.7286 29.4617 15.6861C29.3017 15.6436 29.1311 15.6652 28.9873 15.7461Z" fill="black"/>
<path d="M25.628 32.4445L26.0535 31.7183L24.7506 31.1895C23.7566 31.7823 22.7046 32.1855 21.6257 32.3872C21.6182 32.2483 21.5837 32.1145 21.5256 31.9987C21.222 31.3458 20.8198 30.7837 20.3444 30.3479C19.8691 29.9121 19.3309 29.612 18.7638 29.4665C16.9035 29.0239 15.14 30.4022 14.6618 30.8156C13.7153 30.1634 12.8405 29.3421 12.0616 28.3746C12.1263 28.3114 12.1866 28.2408 12.2419 28.1634C12.773 27.4185 12.7143 26.2883 12.6322 25.6818C12.6102 25.3506 12.6348 25.0168 12.7048 24.6976L12.714 24.6407C12.7549 24.4171 12.807 24.1975 12.8701 23.9832C13.0463 23.4466 13.1319 22.8652 13.1208 22.2798C13.0513 21.0374 12.3861 20.2802 11.8522 19.672C11.4175 19.1769 11.0419 18.7493 10.993 18.1781C10.9375 17.4929 10.9319 16.8021 10.9764 16.1155C10.9782 16.0852 10.9787 16.0547 10.978 16.0244C10.9473 14.6818 10.0902 13.7969 8.66644 13.5988C8.74971 13.1209 8.8493 12.6518 8.96522 12.1916C9.06899 12.2213 9.17428 12.2408 9.28022 12.2498C10.0167 12.2498 10.6657 11.3726 11.1512 10.6025C11.4944 10.1272 11.9146 9.7622 12.38 9.53537C12.4648 9.48329 12.5502 9.43081 12.6356 9.3767C12.9511 9.2099 13.2376 8.95915 13.4776 8.63985C13.7175 8.32055 13.9058 7.93944 14.0309 7.51992C14.2112 6.82383 14.0505 5.34621 14.0392 5.22904C14.0085 4.80046 13.9462 4.37693 13.853 3.9646C15.2251 2.82402 16.7622 2.07942 18.3646 1.7791C18.368 2.04761 18.4415 2.65785 18.2618 2.85476C18.1236 2.97906 17.9725 3.07583 17.8133 3.14199C17.7016 3.19854 17.5908 3.25509 17.4845 3.31977C16.95 3.606 16.4593 4.01963 16.0366 4.54027C15.559 5.1912 15.6028 5.75467 15.7237 6.11431C15.783 6.29014 15.8873 6.43234 16.018 6.51558C16.1487 6.59882 16.2974 6.61771 16.4377 6.56888C16.5779 6.52006 16.7006 6.40668 16.7838 6.24894C16.867 6.0912 16.9054 5.89933 16.8922 5.70748L16.9118 5.68022C17.2321 5.30702 17.5982 5.00965 17.9942 4.80105C18.0763 4.75101 18.162 4.70829 18.248 4.66517C18.534 4.54139 18.8022 4.35418 19.0412 4.11147C19.5959 3.50122 19.5922 2.61717 19.5894 2.03011V1.95363C19.5894 1.86209 19.5894 1.75265 19.5861 1.63752C19.7226 1.63101 19.86 1.62328 19.9981 1.62328C20.8778 1.62409 21.7545 1.75771 22.6114 2.02157C22.4409 2.33772 22.3242 2.6994 22.2694 3.0815C22.2146 3.4636 22.223 3.85698 22.294 4.23433C22.2983 4.25834 22.3035 4.28193 22.3093 4.30512C22.3619 4.51797 22.3856 4.74154 22.3794 4.96541C21.8388 4.91171 19.6626 4.81977 19.4823 6.75548C19.478 6.7925 19.4746 6.83196 19.4728 6.87265C19.4812 7.1836 19.4284 7.49208 19.3197 7.76768C19.2641 7.81527 19.2065 7.85847 19.1471 7.89705C18.8994 8.03535 18.6854 8.26206 18.5287 8.55205C18.4032 8.82219 18.0218 9.64277 18.3481 10.3881C18.7179 11.2315 19.5821 11.1887 20.6774 11.1346C21.5611 11.0907 22.7737 11.0309 23.198 11.6139C23.28 11.7417 23.3395 11.8924 23.3719 12.0549C23.4043 12.2173 23.4089 12.3873 23.3853 12.5524C23.3572 12.6277 23.1814 12.7559 22.7657 12.7294L22.699 12.7249C22.1537 12.721 21.6097 12.6564 21.0726 12.5317C20.0501 12.1163 18.7767 11.6 17.4386 12.0569C16.7029 12.3289 16.0447 12.8857 15.5478 13.6564C15.0509 14.4271 14.7378 15.3769 14.6483 16.3848C14.5005 18.4056 15.0157 19.7973 16.1814 20.5215L16.3002 20.5955C16.8606 21.026 17.5004 21.2396 18.1473 21.2123C18.1712 21.2097 18.1951 21.2052 18.2186 21.1989C18.3919 21.1525 19.1064 21.0585 19.4244 21.443C19.4817 21.5182 19.5248 21.6101 19.5505 21.7115C19.649 21.6893 19.7486 21.6765 19.8484 21.6732L20.7998 21.6431C20.7418 21.1036 20.5462 20.6068 20.2457 20.2359C19.4804 19.316 18.2912 19.53 18.0203 19.5935C17.597 19.5764 17.1841 19.4147 16.8215 19.124L16.699 19.0479C16.2184 18.7493 15.7436 18.218 15.8661 16.5439C15.9307 15.8684 16.1428 15.2328 16.4761 14.7157C16.8095 14.1986 17.2496 13.8226 17.742 13.6342C18.6732 13.3165 19.5998 13.6371 20.7135 14.0886C21.3468 14.2576 21.9909 14.3455 22.6369 14.3511L22.7011 14.3555C22.9643 14.3982 23.2312 14.3705 23.4861 14.2739C23.741 14.1773 23.9789 14.0139 24.1855 13.7933C24.4244 13.5138 24.5741 13.124 24.6043 12.703C24.6429 12.3044 24.6158 11.8995 24.5248 11.5163C24.4338 11.1331 24.281 10.7809 24.0771 10.4841C23.2733 9.37833 21.8082 9.45115 20.6305 9.5077C20.262 9.53601 19.8925 9.53601 19.5239 9.5077L19.5457 9.45726C19.5845 9.42349 19.6586 9.37223 19.71 9.33521C19.9034 9.22016 20.0782 9.05629 20.2246 8.8527C20.5275 8.30055 20.6926 7.6361 20.6967 6.95279C20.7153 6.75263 21.5079 6.50161 22.3191 6.5899C22.3332 6.5899 22.3473 6.59234 22.3613 6.59274C22.5533 6.60477 22.7447 6.55545 22.9194 6.44892C23.0941 6.34239 23.2471 6.18174 23.3654 5.98046C23.7762 5.22863 23.5543 4.12937 23.4802 3.82425C23.4497 3.57526 23.4751 3.31985 23.5532 3.08991C23.6312 2.85998 23.7585 2.6657 23.9192 2.53133C25.5961 3.33521 27.1124 4.63827 28.352 6.34078C29.5917 8.04329 30.5219 10.1001 31.0714 12.3539C30.5567 12.3375 30.0447 12.4582 29.5656 12.7087C29.497 12.7388 29.4159 12.7746 29.3446 12.8039C28.9174 12.3017 28.3738 12.009 27.8042 11.9743C27.5843 11.959 27.3647 12.0117 27.1628 12.1283C26.9608 12.2449 26.782 12.4221 26.6403 12.646C26.4986 12.87 26.3979 13.1346 26.3462 13.419C26.2945 13.7034 26.2931 13.9999 26.3421 14.2851C26.3864 14.5016 26.4497 14.7104 26.5307 14.9072C26.5448 14.945 26.5613 14.9906 26.5788 15.0378C26.4629 15.0514 26.3462 15.0283 26.2384 14.9703C26.0856 14.7355 25.8855 14.5638 25.6617 14.4754C25.4379 14.387 25.1997 14.3856 24.9753 14.4715C24.7843 14.5659 24.6185 14.7332 24.4987 14.9523C24.3789 15.1715 24.3104 15.4327 24.3018 15.7034C24.2656 16.1665 24.3013 16.6345 24.4066 17.0786C24.5119 17.5226 24.6846 17.9333 24.9141 18.2851C25.2554 18.7505 25.6816 19.0905 26.1511 19.2721L26.0868 19.4169C26.0039 19.6041 25.9206 19.7933 25.8309 19.969C25.7213 20.1838 25.597 20.3954 25.4657 20.6199C25.2992 20.9047 25.1308 21.1948 24.9787 21.5097L26.524 21.4609C26.6323 21.2749 26.7413 21.0845 26.8442 20.8832C26.947 20.6818 27.0456 20.4605 27.142 20.2432C27.187 20.1411 27.232 20.0398 27.2773 19.9413C27.3834 19.7612 27.4576 19.5516 27.4944 19.3281C27.5312 19.1046 27.5296 18.873 27.4898 18.6505C27.4444 18.4809 27.3707 18.3272 27.2742 18.201C27.1777 18.0748 27.0609 17.9793 26.9326 17.9218C26.8356 17.871 26.737 17.8234 26.6388 17.7766C26.3381 17.6749 26.0601 17.4789 25.8282 17.205C25.6609 16.9486 25.5561 16.6309 25.5275 16.2937C25.9126 16.6091 26.3696 16.732 26.8166 16.6403C27.0188 16.6173 27.2135 16.5286 27.3839 16.3821C27.5542 16.2356 27.6948 16.0358 27.7934 15.8002C28.0132 15.2217 27.7907 14.624 27.6278 14.1875C27.5948 14.0988 27.5449 13.9646 27.536 13.9279C27.529 13.8867 27.5293 13.8439 27.5369 13.8029C27.5445 13.7619 27.5592 13.7238 27.5798 13.6916C27.5979 13.6599 27.6219 13.635 27.6494 13.6193C27.6769 13.6036 27.707 13.5975 27.7368 13.6017C27.8915 13.603 28.0444 13.6457 28.1864 13.7273C28.3284 13.8089 28.4566 13.9276 28.5633 14.0764C28.9105 14.7135 29.4884 14.458 29.9528 14.253C30.3459 14.0789 30.8843 13.8409 31.1703 14.0402C31.3427 14.2045 31.4601 14.4518 31.4972 14.7294C31.7511 16.9285 31.6446 19.1746 31.185 21.314L31.7703 21.2953L32.3433 20.2815C32.4658 20.071 32.5882 19.8628 32.7107 19.657C33.1056 16.2073 32.6963 12.6797 31.5379 9.54837C30.3796 6.41701 28.5276 3.83202 26.2311 2.14091C23.9345 0.449795 21.3034 -0.266361 18.6915 0.0887143C16.0796 0.443789 13.6121 1.85307 11.6208 4.12711C9.62938 6.40114 8.2096 9.43091 7.55227 12.8091C6.89495 16.1873 7.03159 19.752 7.94383 23.0239C8.85607 26.2958 10.5002 29.1182 12.6551 31.1115C14.8101 33.1048 17.3726 34.1735 19.9981 34.174C21.9495 34.1765 23.8753 33.5848 25.628 32.4445ZM12.7773 4.9764C12.7985 5.15093 12.815 5.32383 12.8254 5.43327C12.8389 5.57566 12.8511 5.703 12.8637 5.79942C12.9366 6.18907 12.9402 6.59598 12.8741 6.98778C12.8014 7.20242 12.6961 7.39474 12.5647 7.55263C12.4334 7.71052 12.2789 7.83056 12.1109 7.90519L11.866 8.05653C11.2341 8.37688 10.6678 8.89046 10.213 9.55571C10.0018 9.92046 9.75188 10.2424 9.47093 10.5114C10.2388 8.35359 11.3702 6.4597 12.7773 4.9764ZM11.72 23.4295C11.6368 23.7145 11.569 24.0069 11.517 24.3046L11.5082 24.3604C11.4004 24.8845 11.3733 25.4322 11.4286 25.9706C11.5072 26.3284 11.4808 26.7126 11.3545 27.0455C11.2986 27.1014 11.2292 27.128 11.1595 27.1199C10.1081 25.4951 9.32435 23.5957 8.85855 21.5441C8.39276 19.4924 8.25526 17.3339 8.45491 15.2074C8.88348 15.2599 9.71001 15.4389 9.75409 16.0414C9.70688 16.8145 9.71487 17.5918 9.77797 18.3628C9.88174 19.5695 10.5335 20.312 11.0569 20.9084C11.5608 21.482 11.8709 21.8612 11.9009 22.4015C11.8928 22.7568 11.8312 23.1063 11.72 23.4295ZM18.5541 31.0719C19.2554 31.2493 19.8804 31.7719 20.3042 32.5353C20.2023 32.5389 20.101 32.5463 19.9981 32.5463C18.6618 32.5472 17.3355 32.2407 16.0779 31.6402C16.8423 31.1273 17.7046 30.9294 18.5541 31.0719Z" fill="black"/>
<path d="M39.9654 34.689L36.5144 20.8504L37.4629 19.4054C37.9532 18.6416 38.4241 17.8599 38.8247 17.1458C39.105 16.6491 39.2106 16.0493 39.12 15.4671C39.0295 14.885 38.7497 14.3636 38.3369 14.008L38.3038 13.9786C37.8779 13.6065 37.3443 13.4335 36.8111 13.4945C36.2778 13.5555 35.7848 13.846 35.4316 14.3073C34.9429 14.9484 34.4198 15.6818 33.9145 16.4349L32.9654 17.8806L20.1908 18.2293C20.0198 18.2343 19.8535 18.2942 19.7109 18.4022C19.5683 18.5102 19.4551 18.6619 19.3842 18.84L18.8299 20.2479C18.7789 20.382 18.7531 20.5269 18.7543 20.6732C18.7554 20.8194 18.7834 20.9638 18.8364 21.0969C18.8895 21.23 18.9664 21.3488 19.0622 21.4457C19.1579 21.5426 19.2704 21.6153 19.3924 21.6593L28.5979 24.8668L25.3436 29.6513L22.1052 29.3087C21.9788 29.2952 21.8514 29.3119 21.7311 29.3579C21.6107 29.4038 21.5 29.4779 21.4061 29.5755L20.0089 31.0323C19.8966 31.1533 19.813 31.305 19.766 31.473C19.7189 31.6411 19.71 31.8201 19.7399 31.9933C19.7699 32.1664 19.8378 32.328 19.9373 32.4629C20.0367 32.5978 20.1645 32.7016 20.3086 32.7645L23.4823 34.0929C23.2902 34.5849 23.0386 35.2504 22.8523 35.8211C22.7852 36.0259 22.7768 36.2498 22.8285 36.4604C22.8802 36.6709 22.9893 36.8571 23.1398 36.9919C23.2915 37.129 23.4774 37.2073 23.6706 37.2152C23.8637 37.2231 24.0541 37.1603 24.2139 37.0358L25.6826 35.9001L27.6114 38.8223C27.7067 38.9609 27.8308 39.0699 27.9725 39.1394C28.1142 39.2088 28.2688 39.2364 28.4222 39.2197C28.5757 39.2029 28.7229 39.1424 28.8506 39.0436C28.9783 38.9448 29.0822 38.811 29.1529 38.6543L29.9767 36.7308C30.0332 36.5989 30.0643 36.4546 30.068 36.3078C30.0717 36.1609 30.0479 36.0149 29.9982 35.8794L28.7614 32.5077L31.8748 27.5877L37.3122 36.5692C37.3856 36.6876 37.4796 36.7873 37.5883 36.8621C37.697 36.9369 37.8181 36.9851 37.9439 37.0037C38.0697 37.0223 38.1975 37.0109 38.3192 36.9702C38.441 36.9295 38.554 36.8604 38.6513 36.7673L39.6844 35.7571C39.8157 35.6285 39.9119 35.4595 39.9617 35.2702C40.0115 35.0808 40.0128 34.8791 39.9654 34.689V34.689ZM38.1247 35.4002L32.4001 25.9431C32.3421 25.8509 32.266 25.7756 32.1778 25.7233C32.0897 25.6709 31.9921 25.643 31.8928 25.6419C31.7935 25.6407 31.6954 25.6662 31.6063 25.7165C31.5172 25.7667 31.4398 25.8402 31.3801 25.931L27.5426 31.996C27.4797 32.0954 27.4403 32.2117 27.428 32.3336C27.4157 32.4556 27.4311 32.5791 27.4726 32.6922L28.7836 36.2652L28.2745 37.4542L26.3223 34.4963C26.2245 34.3522 26.0828 34.2556 25.9255 34.2257C25.7682 34.1958 25.6069 34.2348 25.4736 34.335L24.4514 35.126C24.6858 34.5084 24.8942 34.0003 24.8976 33.9917C24.9334 33.9017 24.9526 33.8042 24.9542 33.7053C24.9558 33.6064 24.9396 33.5082 24.9067 33.4167C24.8739 33.3253 24.8249 33.2425 24.763 33.1735C24.7011 33.1045 24.6275 33.0507 24.5467 33.0155L21.2767 31.6463L22.1373 30.7487L25.5683 31.1131C25.6726 31.1238 25.7777 31.1044 25.8739 31.0568C25.97 31.0091 26.0543 30.9347 26.1189 30.8403L30.1426 24.929C30.202 24.8364 30.2415 24.7291 30.2579 24.6157C30.2742 24.5024 30.2669 24.3862 30.2366 24.2767C30.2063 24.1672 30.1539 24.0674 30.0835 23.9854C30.0131 23.9035 29.9268 23.8417 29.8317 23.8051L20.1324 20.4256L20.4349 19.6571L33.2982 19.306C33.3926 19.3033 33.4853 19.2762 33.5693 19.2266C33.6532 19.1771 33.7263 19.1064 33.7829 19.0199C33.7829 19.0199 35.9016 15.8696 36.3735 15.2509C36.5173 15.0632 36.718 14.945 36.935 14.92C37.1521 14.8951 37.3693 14.9653 37.5429 15.1165L37.576 15.1458C37.7386 15.2844 37.8493 15.4883 37.8858 15.7166C37.9223 15.9448 37.882 16.1804 37.7729 16.3759C37.3866 17.065 35.3285 20.2783 35.3285 20.2783C35.2706 20.3665 35.2313 20.469 35.2137 20.5775C35.1961 20.6861 35.2008 20.7979 35.2273 20.904L38.7016 34.8352L38.1247 35.4002Z" fill="black"/>
</svg>
