<svg width="40" height="50" viewBox="0 0 40 50" fill="none" xmlns="http://www.w3.org/2000/svg">
<g clip-path="url(#clip0)">
<path d="M12.5778 38.6916C12.2809 38.7228 11.9825 38.7422 11.6903 38.75C11.5246 38.7522 11.3665 38.8201 11.2508 38.9389C11.1351 39.0577 11.0714 39.2175 11.0736 39.3833C11.0758 39.549 11.1437 39.7071 11.2625 39.8228C11.3813 39.9384 11.5411 40.0022 11.7069 40H11.7241C12.0481 39.9912 12.3787 39.9687 12.7072 39.9353C12.8721 39.9182 13.0234 39.8362 13.1279 39.7075C13.2323 39.5787 13.2814 39.4138 13.2642 39.2489C13.2471 39.084 13.1651 38.9327 13.0364 38.8282C12.9077 38.7238 12.7427 38.6747 12.5778 38.6919V38.6916Z" fill="black"/>
<path d="M9.63094 38.6128C9.34 38.5647 9.04937 38.5031 8.76719 38.4303C8.60665 38.3889 8.43622 38.4129 8.2934 38.4971C8.15058 38.5813 8.04706 38.7188 8.00562 38.8794C7.96418 39.0399 7.98821 39.2103 8.07243 39.3532C8.15665 39.496 8.29415 39.5995 8.45469 39.6409C8.77219 39.7225 9.09875 39.7916 9.42531 39.8459C9.4594 39.8515 9.49389 39.8543 9.52844 39.8544C9.68557 39.8547 9.83705 39.7957 9.95269 39.6893C10.0683 39.583 10.1397 39.4369 10.1525 39.2803C10.1653 39.1237 10.1186 38.968 10.0218 38.8443C9.92498 38.7205 9.78509 38.6377 9.63 38.6125L9.63094 38.6128Z" fill="black"/>
<path d="M15.48 38.0381C15.1969 38.1363 14.9088 38.2256 14.6238 38.3034C14.4639 38.3473 14.328 38.4528 14.2459 38.5969C14.1639 38.741 14.1424 38.9117 14.1862 39.0716C14.2301 39.2314 14.3357 39.3674 14.4797 39.4494C14.6238 39.5315 14.7945 39.5529 14.9544 39.5091C15.2669 39.4241 15.5794 39.3263 15.8888 39.2197C16.0454 39.1655 16.1742 39.0513 16.2466 38.9021C16.3191 38.753 16.3294 38.5812 16.2752 38.4245C16.221 38.2679 16.1067 38.1391 15.9576 38.0667C15.8085 37.9942 15.6367 37.9839 15.48 38.0381Z" fill="black"/>
<path d="M6.85031 37.7097C6.59 37.5778 6.33344 37.4322 6.0875 37.2766C5.94739 37.188 5.77782 37.1587 5.6161 37.1951C5.45438 37.2315 5.31375 37.3307 5.22516 37.4708C5.13656 37.6109 5.10724 37.7805 5.14367 37.9422C5.18009 38.1039 5.27926 38.2445 5.41937 38.3331C5.69875 38.5097 5.99 38.6753 6.28562 38.8247C6.43352 38.8996 6.60511 38.9126 6.76264 38.861C6.92017 38.8094 7.05074 38.6973 7.12562 38.5494C7.20051 38.4015 7.21357 38.2299 7.16194 38.0724C7.11031 37.9148 6.99821 37.7843 6.85031 37.7094V37.7097Z" fill="black"/>
<path d="M18.1991 36.7781C17.9394 36.9303 17.6734 37.0766 17.4084 37.2125C17.3354 37.25 17.2705 37.3015 17.2173 37.364C17.1642 37.4266 17.1239 37.499 17.0988 37.5771C17.0736 37.6553 17.0641 37.7376 17.0708 37.8194C17.0775 37.9012 17.1002 37.9809 17.1377 38.0539C17.1751 38.1269 17.2266 38.1919 17.2892 38.245C17.3517 38.2981 17.4241 38.3384 17.5023 38.3636C17.5804 38.3887 17.6627 38.3982 17.7445 38.3915C17.8263 38.3849 17.906 38.3622 17.9791 38.3247C18.265 38.1781 18.5519 38.0206 18.8316 37.8559C18.9746 37.7721 19.0784 37.6349 19.1203 37.4745C19.1621 37.3141 19.1385 37.1436 19.0547 37.0006C18.9709 36.8576 18.8336 36.7538 18.6732 36.7119C18.5128 36.6701 18.3424 36.6937 18.1994 36.7775L18.1991 36.7781Z" fill="black"/>
<path d="M3.89562 35.3497C3.84371 35.2844 3.77926 35.2302 3.70607 35.1902C3.63287 35.1502 3.55242 35.1253 3.46944 35.1169C3.38646 35.1085 3.30264 35.1168 3.22292 35.1413C3.1432 35.1658 3.06918 35.206 3.00523 35.2595C2.94128 35.313 2.8887 35.3788 2.85057 35.453C2.81245 35.5272 2.78956 35.6082 2.78325 35.6914C2.77693 35.7746 2.78733 35.8582 2.81382 35.9372C2.84031 36.0163 2.88236 36.0893 2.9375 36.1519C3.15 36.4059 3.375 36.6519 3.60844 36.8844C3.72647 36.9981 3.88444 37.0609 4.04832 37.0592C4.21219 37.0575 4.36887 36.9916 4.48459 36.8755C4.60031 36.7595 4.66582 36.6026 4.667 36.4388C4.66819 36.2749 4.60496 36.1171 4.49094 35.9994C4.28406 35.7931 4.08406 35.575 3.89562 35.3497Z" fill="black"/>
<path d="M20.6531 35.0312C20.4225 35.2272 20.1844 35.4184 19.9481 35.6003C19.8166 35.7011 19.7304 35.8501 19.7087 36.0144C19.6869 36.1788 19.7314 36.345 19.8322 36.4766C19.933 36.6081 20.082 36.6943 20.2463 36.716C20.4106 36.7377 20.5769 36.6933 20.7084 36.5925C20.9622 36.3981 21.2159 36.1934 21.4622 35.9841C21.5873 35.8764 21.6648 35.7236 21.6776 35.5591C21.6905 35.3945 21.6378 35.2316 21.531 35.1057C21.4241 34.9799 21.2719 34.9015 21.1074 34.8875C20.9429 34.8736 20.7796 34.9252 20.6531 35.0312Z" fill="black"/>
<path d="M2.7375 33.6447C2.5975 33.3881 2.46469 33.1203 2.34375 32.8494C2.31026 32.7744 2.26235 32.7068 2.20273 32.6504C2.14312 32.594 2.07297 32.5499 1.99631 32.5206C1.91964 32.4913 1.83795 32.4773 1.75591 32.4796C1.67386 32.4819 1.59306 32.5003 1.51813 32.5338C1.44319 32.5672 1.37558 32.6152 1.31917 32.6748C1.26275 32.7344 1.21863 32.8045 1.18932 32.8812C1.16001 32.9579 1.14609 33.0396 1.14835 33.1216C1.15061 33.2036 1.16901 33.2844 1.2025 33.3594C1.33719 33.6606 1.48375 33.9581 1.64 34.2438C1.67934 34.3158 1.73248 34.3794 1.79639 34.4309C1.8603 34.4824 1.93373 34.5208 2.01248 34.5439C2.09124 34.5671 2.17378 34.5745 2.25539 34.5657C2.337 34.5569 2.41608 34.5321 2.48813 34.4928C2.56017 34.4535 2.62376 34.4003 2.67526 34.3364C2.72677 34.2725 2.76518 34.1991 2.78831 34.1203C2.81144 34.0416 2.81883 33.959 2.81005 33.8774C2.80128 33.7958 2.77652 33.7167 2.73719 33.6447H2.7375Z" fill="black"/>
<path d="M1.66687 30.8859C1.59469 30.6 1.53094 30.306 1.47781 30.011C1.44827 29.8478 1.35513 29.7032 1.21891 29.6087C1.08268 29.5143 0.914514 29.4778 0.751406 29.5074C0.588297 29.5369 0.443607 29.63 0.349165 29.7663C0.254723 29.9025 0.218265 30.0707 0.247812 30.2338C0.306249 30.5559 0.375937 30.8781 0.454999 31.1913C0.47466 31.2713 0.50996 31.3467 0.558868 31.413C0.607776 31.4794 0.669326 31.5354 0.739974 31.5779C0.810621 31.6203 0.888971 31.6484 0.970512 31.6605C1.05205 31.6725 1.13517 31.6683 1.21509 31.6481C1.29501 31.6279 1.37014 31.5921 1.43616 31.5428C1.50218 31.4934 1.55779 31.4315 1.59978 31.3606C1.64177 31.2897 1.66932 31.2111 1.68083 31.1295C1.69235 31.0479 1.6876 30.9648 1.66687 30.885V30.8859Z" fill="black"/>
<path d="M0.656248 28.5744C0.738285 28.5716 0.818978 28.5528 0.893719 28.5188C0.968459 28.4849 1.03578 28.4366 1.09185 28.3766C1.14791 28.3167 1.19162 28.2463 1.22047 28.1694C1.24932 28.0926 1.26275 28.0108 1.26 27.9288C1.25 27.6286 1.24875 27.3281 1.25625 27.0275C1.26039 26.8617 1.19852 26.7011 1.08424 26.581C1.02765 26.5215 0.959904 26.4737 0.884861 26.4404C0.809818 26.4071 0.72895 26.3889 0.646873 26.3869C0.481113 26.3827 0.320496 26.4446 0.200355 26.5589C0.0802147 26.6732 0.0103924 26.8305 0.00624841 26.9963C-0.00187659 27.3208 -0.000522418 27.6456 0.0103109 27.9706C0.0157444 28.1327 0.0839835 28.2864 0.20061 28.3991C0.317237 28.5118 0.473115 28.5748 0.635311 28.5747L0.656248 28.5744Z" fill="black"/>
<path d="M0.729375 25.4525C0.760407 25.4572 0.791742 25.4596 0.823125 25.4597C0.972512 25.4595 1.11689 25.4058 1.23012 25.3084C1.34334 25.2109 1.4179 25.0761 1.44031 24.9284C1.485 24.6334 1.53844 24.3331 1.59906 24.0366C1.61548 23.9561 1.61589 23.8732 1.60027 23.7927C1.58466 23.7121 1.55332 23.6353 1.50805 23.5668C1.46279 23.4984 1.40447 23.4395 1.33644 23.3935C1.26841 23.3476 1.192 23.3155 1.11156 23.2991C1.03113 23.2826 0.948248 23.2822 0.867654 23.2979C0.78706 23.3135 0.710331 23.3448 0.641848 23.3901C0.573365 23.4353 0.514469 23.4937 0.468522 23.5617C0.422575 23.6297 0.390478 23.7061 0.374063 23.7866C0.310313 24.1037 0.253438 24.4247 0.205313 24.7406C0.192972 24.8218 0.196739 24.9046 0.216398 24.9843C0.236058 25.064 0.271224 25.139 0.319889 25.2051C0.368554 25.2712 0.429765 25.3271 0.500025 25.3695C0.570285 25.412 0.648219 25.4402 0.729375 25.4525Z" fill="black"/>
<path d="M1.35343 22.3925C1.51103 22.4438 1.68257 22.4305 1.83031 22.3553C1.97805 22.2802 2.08989 22.1495 2.14125 21.9919C2.235 21.7066 2.33593 21.4184 2.44312 21.1359C2.47224 21.0592 2.48596 20.9775 2.48349 20.8954C2.48102 20.8134 2.46242 20.7326 2.42874 20.6578C2.39507 20.5829 2.34698 20.5154 2.28722 20.4592C2.22746 20.4029 2.15721 20.3589 2.08047 20.3298C2.00372 20.3007 1.922 20.287 1.83996 20.2895C1.75792 20.2919 1.67716 20.3105 1.60231 20.3442C1.52746 20.3779 1.45997 20.426 1.4037 20.4857C1.34744 20.5455 1.30349 20.6157 1.27437 20.6925C1.16031 20.9937 1.05218 21.3006 0.953122 21.6047C0.901776 21.7622 0.915101 21.9337 0.990169 22.0815C1.06524 22.2292 1.1959 22.3411 1.35343 22.3925Z" fill="black"/>
<path d="M2.45938 19.4719C2.53257 19.509 2.61236 19.5314 2.6942 19.5377C2.77605 19.5441 2.85833 19.5342 2.93637 19.5087C3.0144 19.4833 3.08665 19.4427 3.14899 19.3892C3.21133 19.3358 3.26254 19.2707 3.29969 19.1975C3.43625 18.929 3.58094 18.6597 3.72969 18.3965C3.77194 18.325 3.79951 18.2458 3.81079 18.1635C3.82207 18.0812 3.81683 17.9975 3.79538 17.9172C3.77393 17.837 3.73669 17.7618 3.68586 17.6961C3.63502 17.6304 3.57159 17.5755 3.49929 17.5346C3.42699 17.4937 3.34726 17.4677 3.26476 17.4579C3.18227 17.4482 3.09866 17.455 3.01883 17.478C2.939 17.501 2.86455 17.5396 2.79982 17.5917C2.7351 17.6437 2.68141 17.7082 2.64188 17.7812C2.48375 18.0606 2.32938 18.3469 2.185 18.6322C2.11013 18.7799 2.09698 18.9514 2.14843 19.1088C2.19987 19.2662 2.31171 19.3968 2.45938 19.4719Z" fill="black"/>
<path d="M5.3125 15.0065C5.24803 14.9557 5.17419 14.9181 5.09518 14.8958C5.01618 14.8736 4.93356 14.8671 4.85204 14.8768C4.77053 14.8864 4.69171 14.912 4.6201 14.9522C4.54849 14.9923 4.48549 15.0461 4.43469 15.1106C4.23531 15.3634 4.04031 15.6231 3.85438 15.8825C3.80545 15.9491 3.77023 16.0248 3.75076 16.1052C3.73128 16.1855 3.72795 16.2689 3.74094 16.3506C3.75394 16.4322 3.783 16.5105 3.82646 16.5808C3.86991 16.6512 3.92689 16.7122 3.99409 16.7604C4.06129 16.8085 4.13738 16.8429 4.21795 16.8614C4.29852 16.88 4.38197 16.8824 4.46347 16.8684C4.54497 16.8545 4.62289 16.8245 4.69273 16.7803C4.76256 16.736 4.82292 16.6784 4.87031 16.6106C5.04531 16.3665 5.22875 16.1222 5.41656 15.8844C5.46738 15.8199 5.50499 15.746 5.52726 15.667C5.54953 15.588 5.55602 15.5054 5.54636 15.4239C5.53669 15.3424 5.51107 15.2636 5.47094 15.192C5.43082 15.1203 5.37698 15.0573 5.3125 15.0065Z" fill="black"/>
<path d="M28.9875 16.0569C28.915 16.0987 28.8517 16.1549 28.8015 16.2218C28.7512 16.2888 28.715 16.3652 28.695 16.4465L29.9012 16.4178C29.8846 16.3729 29.8643 16.3294 29.8406 16.2878C29.7581 16.144 29.6219 16.039 29.4619 15.9957C29.3019 15.9523 29.1313 15.9744 28.9875 16.0569Z" fill="black"/>
<path d="M26.0597 24.9247L26.4941 24.3669L25.1641 23.9606C24.1493 24.416 23.0754 24.7257 21.9741 24.8806C21.9664 24.774 21.9312 24.6712 21.8719 24.5822C21.5619 24.0807 21.1513 23.649 20.666 23.3142C20.1808 22.9794 19.6314 22.7489 19.0525 22.6372C17.1534 22.2972 15.3531 23.3559 14.865 23.6734C13.8988 23.1725 13.0057 22.5416 12.2106 21.7984C12.2767 21.7499 12.3382 21.6957 12.3947 21.6363C12.9369 21.0641 12.8769 20.1959 12.7931 19.73C12.7707 19.4756 12.7958 19.2193 12.8672 18.9741L12.8766 18.9303C12.9183 18.7586 12.9716 18.5899 13.0359 18.4253C13.2159 18.0131 13.3032 17.5665 13.2919 17.1169C13.2209 16.1625 12.5419 15.5809 11.9969 15.1138C11.5531 14.7334 11.1697 14.405 11.1197 13.9663C11.063 13.4399 11.0574 12.9093 11.1028 12.3819C11.1046 12.3586 11.1051 12.3352 11.1044 12.3119C11.0731 11.2806 10.1981 10.6009 8.74469 10.4488C8.82969 10.0817 8.93135 9.72135 9.04969 9.36781C9.15562 9.39066 9.2631 9.4056 9.37125 9.4125C10.1231 9.4125 10.7856 8.73875 11.2812 8.14719C11.6316 7.78208 12.0606 7.50174 12.5356 7.3275C12.6222 7.2875 12.7094 7.24719 12.7966 7.20563C13.1186 7.0775 13.4111 6.88489 13.6561 6.63963C13.901 6.39436 14.0932 6.10162 14.2209 5.77938C14.405 5.24469 14.2409 4.10969 14.2294 4.01969C14.1981 3.69048 14.1345 3.36516 14.0394 3.04844C15.44 2.17232 17.0091 1.60037 18.645 1.36969C18.6484 1.57594 18.7234 2.04469 18.54 2.19594C18.399 2.29142 18.2447 2.36575 18.0822 2.41656C17.9681 2.46 17.855 2.50344 17.7466 2.55312C17.2009 2.77299 16.6999 3.0907 16.2684 3.49062C15.7809 3.99062 15.8256 4.42344 15.9491 4.69969C16.0095 4.83475 16.116 4.94397 16.2494 5.00792C16.3829 5.07186 16.5347 5.08636 16.6779 5.04886C16.821 5.01135 16.9462 4.92427 17.0312 4.8031C17.1162 4.68194 17.1554 4.53456 17.1419 4.38719L17.1619 4.36625C17.4889 4.07959 17.8626 3.85117 18.2669 3.69094C18.3506 3.6525 18.4381 3.61969 18.5259 3.58656C18.8179 3.49148 19.0917 3.34768 19.3356 3.16125C19.9019 2.6925 19.8981 2.01344 19.8953 1.5625V1.50375C19.8953 1.43344 19.8953 1.34937 19.8919 1.26094C20.0312 1.25594 20.1716 1.25 20.3125 1.25C21.2105 1.25063 22.1055 1.35326 22.9803 1.55594C22.8062 1.79879 22.6871 2.0766 22.6311 2.3701C22.5752 2.6636 22.5837 2.96576 22.6562 3.25562C22.6606 3.27406 22.6659 3.29219 22.6719 3.31C22.7255 3.4735 22.7498 3.64522 22.7434 3.81719C22.1916 3.77594 19.97 3.70531 19.7859 5.19219C19.7816 5.22062 19.7781 5.25094 19.7762 5.28219C19.7848 5.52104 19.7309 5.758 19.62 5.96969C19.5632 6.00625 19.5044 6.03943 19.4437 6.06906C19.1909 6.1753 18.9724 6.34943 18.8125 6.57219C18.6844 6.77969 18.295 7.41 18.6281 7.9825C19.0056 8.63031 19.8878 8.5975 21.0059 8.55594C21.9081 8.52219 23.1459 8.47625 23.5791 8.92406C23.6628 9.02227 23.7235 9.13803 23.7566 9.2628C23.7897 9.38757 23.7944 9.51818 23.7703 9.645C23.7416 9.70281 23.5622 9.80125 23.1378 9.78094L23.0697 9.7775C22.5131 9.77447 21.9577 9.72482 21.4094 9.62906C20.3656 9.31 19.0656 8.91344 17.6997 9.26438C16.9486 9.47333 16.2767 9.90102 15.7695 10.493C15.2622 11.085 14.9426 11.8145 14.8512 12.5888C14.7003 14.1409 15.2262 15.21 16.4162 15.7663L16.5375 15.8231C17.1096 16.1537 17.7627 16.3178 18.4231 16.2969C18.4476 16.2949 18.4719 16.2914 18.4959 16.2866C18.6728 16.2509 19.4022 16.1788 19.7269 16.4741C19.7853 16.5318 19.8294 16.6025 19.8556 16.6803C19.9561 16.6633 20.0578 16.6534 20.1597 16.6509L21.1309 16.6278C21.0717 16.2134 20.8721 15.8318 20.5653 15.5469C19.7841 14.8403 18.57 15.0047 18.2934 15.0534C17.8613 15.0403 17.4399 14.9161 17.0697 14.6928L16.9447 14.6344C16.4541 14.405 15.9694 13.9969 16.0944 12.7109C16.1603 12.192 16.3768 11.7038 16.7171 11.3066C17.0575 10.9094 17.5067 10.6206 18.0094 10.4759C18.96 10.2319 19.9059 10.4781 21.0428 10.825C21.6893 10.9548 22.3468 11.0223 23.0062 11.0266L23.0719 11.03C23.3405 11.0628 23.613 11.0415 23.8732 10.9673C24.1335 10.8931 24.3762 10.7676 24.5872 10.5981C24.831 10.3835 24.9839 10.084 25.0147 9.76063C25.0542 9.4545 25.0265 9.14345 24.9335 8.84911C24.8406 8.55477 24.6847 8.28421 24.4766 8.05625C23.6559 7.20688 22.1603 7.26281 20.9581 7.30625C20.5819 7.328 20.2047 7.328 19.8284 7.30625L19.8506 7.2675C19.8903 7.24156 19.9659 7.20219 20.0184 7.17375C20.2159 7.08538 20.3943 6.95951 20.5437 6.80313C20.853 6.379 21.0215 5.86862 21.0256 5.34375C21.0447 5.19 21.8537 4.99719 22.6819 5.065C22.6962 5.065 22.7106 5.06687 22.725 5.06719C22.921 5.07643 23.1164 5.03854 23.2947 4.95671C23.473 4.87488 23.6292 4.75149 23.75 4.59687C24.1694 4.01937 23.9428 3.175 23.8672 2.94062C23.8361 2.74937 23.862 2.55318 23.9417 2.37656C24.0214 2.19994 24.1513 2.05071 24.3153 1.9475C26.0272 2.56498 27.575 3.5659 28.8405 4.87364C30.106 6.18139 31.0556 7.76131 31.6166 9.4925C31.0911 9.47993 30.5685 9.57258 30.0794 9.765C30.0094 9.78813 29.9266 9.81563 29.8537 9.83813C29.4177 9.45242 28.8628 9.22756 28.2812 9.20094C28.0568 9.18919 27.8327 9.22968 27.6265 9.3192C27.4204 9.40873 27.2378 9.54486 27.0931 9.71689C26.9485 9.88892 26.8457 10.0922 26.7929 10.3106C26.7401 10.5291 26.7387 10.7568 26.7887 10.9759C26.8339 11.1422 26.8985 11.3026 26.9812 11.4538C26.9956 11.4828 27.0125 11.5178 27.0303 11.5541C26.912 11.5645 26.7929 11.5468 26.6828 11.5022C26.5269 11.3219 26.3226 11.19 26.0941 11.1221C25.8657 11.0542 25.6225 11.0531 25.3934 11.1191C25.1984 11.1916 25.0292 11.3201 24.9069 11.4884C24.7846 11.6567 24.7147 11.8574 24.7059 12.0653C24.669 12.421 24.7054 12.7806 24.8129 13.1217C24.9204 13.4628 25.0967 13.7782 25.3309 14.0484C25.6794 14.4059 26.1144 14.667 26.5937 14.8066L26.5281 14.9178C26.4434 15.0616 26.3584 15.2069 26.2669 15.3419C26.155 15.5069 26.0281 15.6694 25.8941 15.8419C25.7241 16.0606 25.5522 16.2834 25.3969 16.5253L26.9744 16.4878C27.085 16.345 27.1962 16.1988 27.3012 16.0441C27.4062 15.8894 27.5069 15.7194 27.6053 15.5525C27.6512 15.4741 27.6972 15.3963 27.7434 15.3206C27.8517 15.1823 27.9275 15.0213 27.965 14.8496C28.0026 14.6779 28.001 14.5 27.9603 14.3291C27.914 14.1988 27.8388 14.0808 27.7403 13.9838C27.6418 13.8869 27.5225 13.8136 27.3916 13.7694C27.2925 13.7303 27.1919 13.6938 27.0916 13.6578C26.7846 13.5797 26.5009 13.4291 26.2641 13.2188C26.0934 13.0218 25.9864 12.7777 25.9572 12.5188C26.3503 12.7611 26.8168 12.8555 27.2731 12.785C27.4795 12.7673 27.6783 12.6992 27.8522 12.5867C28.0261 12.4742 28.1696 12.3207 28.2703 12.1397C28.4947 11.6953 28.2675 11.2363 28.1012 10.9009C28.0675 10.8328 28.0166 10.7297 28.0075 10.7016C28.0003 10.6699 28.0007 10.637 28.0084 10.6055C28.0162 10.574 28.0312 10.5447 28.0522 10.52C28.0707 10.4957 28.0952 10.4766 28.1233 10.4645C28.1514 10.4524 28.1821 10.4477 28.2125 10.4509C28.3704 10.452 28.5265 10.4848 28.6715 10.5475C28.8164 10.6101 28.9473 10.7013 29.0562 10.8156C29.4106 11.305 30.0006 11.1088 30.4747 10.9513C30.8759 10.8175 31.4256 10.6347 31.7175 10.7878C31.8936 10.914 32.0133 11.1039 32.0512 11.3172C32.3105 13.0064 32.2017 14.7317 31.7325 16.375L32.33 16.3606L32.915 15.5819C33.04 15.4202 33.165 15.2603 33.29 15.1022C33.6931 12.4524 33.2753 9.74277 32.0928 7.33749C30.9103 4.9322 29.0198 2.94659 26.6754 1.6476C24.3309 0.348613 21.645 -0.201486 18.9787 0.0712568C16.3124 0.344 13.7934 1.42651 11.7606 3.17326C9.72769 4.92001 8.27832 7.24726 7.60729 9.84215C6.93627 12.437 7.07576 15.1752 8.00701 17.6884C8.93827 20.2017 10.6166 22.3696 12.8165 23.9007C15.0164 25.4318 17.6323 26.2528 20.3125 26.2531C22.3045 26.255 24.2705 25.8006 26.0597 24.9247ZM12.9412 3.82562C12.9628 3.95969 12.9797 4.0925 12.9903 4.17656C13.0041 4.28594 13.0166 4.38375 13.0294 4.45781C13.1039 4.75712 13.1075 5.06967 13.04 5.37063C12.9658 5.5355 12.8583 5.68322 12.7242 5.8045C12.5901 5.92578 12.4324 6.01799 12.2609 6.07531L12.0109 6.19156C11.3658 6.43763 10.7877 6.83213 10.3234 7.34313C10.1079 7.6233 9.85274 7.87058 9.56594 8.07719C10.3498 6.41974 11.5048 4.96499 12.9412 3.82562ZM11.8619 18C11.7769 18.2189 11.7077 18.4435 11.6547 18.6722L11.6456 18.715C11.5356 19.1176 11.508 19.5383 11.5644 19.9519C11.6447 20.2267 11.6177 20.5218 11.4887 20.7775C11.4317 20.8205 11.3608 20.8409 11.2897 20.8347C10.2164 19.5866 9.41631 18.1277 8.9408 16.5517C8.46529 14.9758 8.32493 13.3178 8.52875 11.6844C8.96625 11.7247 9.81 11.8622 9.855 12.325C9.8068 12.9188 9.81497 13.5159 9.87937 14.1081C9.98531 15.035 10.6506 15.6053 11.185 16.0634C11.6994 16.5041 12.0159 16.7953 12.0466 17.2103C12.0382 17.4832 11.9754 17.7517 11.8619 18ZM18.8384 23.8703C19.5543 24.0066 20.1923 24.408 20.625 24.9944C20.5209 24.9972 20.4175 25.0028 20.3125 25.0028C18.9484 25.0036 17.5944 24.7681 16.3106 24.3069C17.0909 23.9129 17.9712 23.7608 18.8384 23.8703Z" fill="black"/>
<path d="M39.9656 32.2813L36.5147 20.1875L37.4631 18.9247C37.9534 18.2572 38.4244 17.5741 38.825 16.95C39.1053 16.5159 39.2108 15.9918 39.1203 15.483C39.0298 14.9742 38.75 14.5186 38.3372 14.2078L38.3041 14.1822C37.8781 13.857 37.3445 13.7058 36.8113 13.7591C36.2781 13.8124 35.785 14.0663 35.4319 14.4694C34.9431 15.0297 34.42 15.6706 33.9147 16.3288L32.9656 17.5922L20.1909 17.8969C20.02 17.9012 19.8537 17.9536 19.711 18.048C19.5684 18.1424 19.4552 18.275 19.3844 18.4306L18.83 19.661C18.779 19.7782 18.7533 19.9048 18.7544 20.0326C18.7555 20.1605 18.7835 20.2866 18.8366 20.4029C18.8896 20.5192 18.9665 20.6231 19.0623 20.7078C19.1581 20.7924 19.2706 20.856 19.3925 20.8944L28.5981 23.6975L25.3437 27.8788L22.1053 27.5794C21.979 27.5675 21.8516 27.5822 21.7312 27.6223C21.6109 27.6624 21.5002 27.7272 21.4062 27.8125L20.0091 29.0856C19.8968 29.1914 19.8132 29.3239 19.7661 29.4708C19.7191 29.6177 19.7101 29.7741 19.7401 29.9254C19.77 30.0767 19.8379 30.218 19.9374 30.3358C20.0369 30.4537 20.1646 30.5444 20.3087 30.5994L23.4825 31.7603C23.2903 32.1903 23.0387 32.7719 22.8525 33.2706C22.7853 33.4496 22.777 33.6453 22.8287 33.8293C22.8804 34.0133 22.9894 34.176 23.14 34.2938C23.2916 34.4136 23.4776 34.482 23.6707 34.4889C23.8639 34.4958 24.0542 34.4409 24.2141 34.3322L25.6828 33.3397L27.6116 35.8935C27.7069 36.0146 27.831 36.1098 27.9727 36.1705C28.1144 36.2312 28.269 36.2553 28.4224 36.2407C28.5758 36.2261 28.7231 36.1732 28.8508 36.0868C28.9785 36.0005 29.0824 35.8835 29.1531 35.7466L29.9769 34.0656C30.0334 33.9503 30.0645 33.8243 30.0682 33.6959C30.0719 33.5676 30.0481 33.44 29.9984 33.3216L28.7616 30.375L31.875 26.0753L37.3125 33.9244C37.3859 34.0279 37.4799 34.115 37.5886 34.1804C37.6973 34.2457 37.8183 34.2878 37.9441 34.3041C38.0699 34.3204 38.1977 34.3104 38.3195 34.2749C38.4412 34.2393 38.5543 34.1789 38.6516 34.0975L39.6847 33.2147C39.8159 33.1023 39.9122 32.9546 39.962 32.7892C40.0118 32.6237 40.013 32.4474 39.9656 32.2813ZM38.125 32.9028L32.4003 24.6381C32.3423 24.5575 32.2662 24.4917 32.1781 24.446C32.0899 24.4002 31.9923 24.3759 31.893 24.3748C31.7937 24.3738 31.6956 24.3961 31.6065 24.44C31.5175 24.4839 31.44 24.5481 31.3803 24.6275L27.5428 29.9278C27.4799 30.0147 27.4404 30.1163 27.4282 30.2229C27.4159 30.3294 27.4313 30.4374 27.4728 30.5363L28.7837 33.6588L28.2747 34.6978L26.3225 32.1128C26.2247 31.9869 26.083 31.9025 25.9257 31.8764C25.7684 31.8503 25.607 31.8844 25.4737 31.9719L24.4516 32.6631C24.6859 32.1235 24.8944 31.6794 24.8978 31.6719C24.9336 31.5932 24.9528 31.508 24.9544 31.4216C24.9559 31.3352 24.9398 31.2493 24.9069 31.1694C24.874 31.0895 24.8251 31.0171 24.7632 30.9568C24.7013 30.8965 24.6277 30.8495 24.5469 30.8188L21.2769 29.6222L22.1375 28.8378L25.5684 29.1563C25.6728 29.1656 25.7779 29.1487 25.874 29.107C25.9702 29.0654 26.0544 29.0003 26.1191 28.9178L30.1428 23.7519C30.2022 23.671 30.2417 23.5772 30.2581 23.4781C30.2744 23.379 30.2671 23.2775 30.2368 23.1818C30.2065 23.0861 30.1541 22.9989 30.0837 22.9273C30.0133 22.8557 29.927 22.8017 29.8319 22.7697L20.1325 19.8163L20.435 19.1447L33.2984 18.8378C33.3929 18.8355 33.4855 18.8118 33.5695 18.7685C33.6534 18.7252 33.7265 18.6634 33.7831 18.5878C33.7831 18.5878 35.9019 15.8347 36.3737 15.2941C36.5175 15.13 36.7182 15.0267 36.9353 15.0049C37.1523 14.9831 37.3696 15.0444 37.5431 15.1766L37.5762 15.2022C37.7388 15.3233 37.8495 15.5015 37.8861 15.701C37.9226 15.9004 37.8822 16.1063 37.7731 16.2772C37.3869 16.8794 35.3287 19.6875 35.3287 19.6875C35.2708 19.7647 35.2315 19.8542 35.2139 19.9491C35.1964 20.0439 35.201 20.1416 35.2275 20.2344L38.7019 32.4091L38.125 32.9028Z" fill="black"/>
</g>
<defs>
<clipPath id="clip0">
<rect width="40" height="50" fill="white"/>
</clipPath>
</defs>
</svg>
